<svg width="78" height="33" viewBox="0 0 78 33" fill="none" xmlns="http://www.w3.org/2000/svg">
<rect width="78" height="33" rx="16.5" fill="#FF9162"/>
<path d="M25.1464 22.19V9.296H23.3964V22.19H25.1464ZM22.5564 9.52H20.8344V12.152H19.3504C19.1077 11.5267 18.7857 11.0507 18.3844 10.724C17.9924 10.388 17.5304 10.22 16.9984 10.22C16.569 10.22 16.1817 10.3273 15.8364 10.542C15.491 10.7567 15.197 11.0647 14.9544 11.466C14.7117 11.8673 14.525 12.3573 14.3944 12.936C14.2637 13.5147 14.1984 14.168 14.1984 14.896C14.1984 15.624 14.2637 16.282 14.3944 16.87C14.525 17.4487 14.7117 17.9387 14.9544 18.34C15.197 18.7413 15.491 19.0493 15.8364 19.264C16.1817 19.4787 16.569 19.586 16.9984 19.586C17.5304 19.586 17.997 19.418 18.3984 19.082C18.7997 18.7367 19.1217 18.2513 19.3644 17.626H20.8344V21.616H22.5564V9.52ZM16.9984 17.85C16.6344 17.85 16.3497 17.6073 16.1444 17.122C15.9484 16.6273 15.8504 15.8853 15.8504 14.896C15.8504 13.9067 15.9484 13.1693 16.1444 12.684C16.3497 12.1987 16.6344 11.956 16.9984 11.956C17.353 11.956 17.6284 12.1987 17.8244 12.684C18.0297 13.1693 18.1324 13.9067 18.1324 14.896C18.1324 15.8853 18.0297 16.6273 17.8244 17.122C17.6284 17.6073 17.353 17.85 16.9984 17.85ZM20.8344 13.636V16.128H19.7144C19.733 15.9413 19.747 15.7453 19.7564 15.54C19.775 15.3253 19.7844 15.1107 19.7844 14.896C19.7844 14.448 19.7564 14.028 19.7004 13.636H20.8344ZM37.1153 13.776V12.488H38.7673V10.99H37.1153V9.31H35.2673V16.912H37.1153V15.288H38.7673V13.776H37.1153ZM34.0493 13.174C34.0493 12.7167 33.9606 12.2967 33.7833 11.914C33.6059 11.522 33.3586 11.186 33.0413 10.906C32.7333 10.626 32.3646 10.4067 31.9353 10.248C31.5153 10.0893 31.0579 10.01 30.5633 10.01C30.0686 10.01 29.6066 10.0893 29.1773 10.248C28.7479 10.4067 28.3746 10.626 28.0573 10.906C27.7493 11.186 27.5066 11.522 27.3293 11.914C27.1519 12.2967 27.0633 12.7167 27.0633 13.174C27.0633 13.6313 27.1519 14.056 27.3293 14.448C27.5066 14.8307 27.7493 15.162 28.0573 15.442C28.3746 15.722 28.7479 15.9413 29.1773 16.1C29.6066 16.2493 30.0686 16.324 30.5633 16.324C31.0579 16.324 31.5153 16.2493 31.9353 16.1C32.3646 15.9413 32.7333 15.722 33.0413 15.442C33.3586 15.162 33.6059 14.8307 33.7833 14.448C33.9606 14.056 34.0493 13.6313 34.0493 13.174ZM28.8693 13.174C28.8693 12.67 29.0233 12.278 29.3313 11.998C29.6486 11.718 30.0593 11.578 30.5633 11.578C31.0486 11.578 31.4499 11.718 31.7673 11.998C32.0939 12.278 32.2573 12.67 32.2573 13.174C32.2573 13.678 32.0939 14.07 31.7673 14.35C31.4499 14.63 31.0486 14.77 30.5633 14.77C30.0593 14.77 29.6486 14.63 29.3313 14.35C29.0233 14.07 28.8693 13.678 28.8693 13.174ZM37.1153 17.43H28.5193V18.914H35.2673V22.218H37.1153V17.43ZM51.5202 20.706V19.208H48.9302V16.058C49.4155 15.7593 49.7935 15.386 50.0642 14.938C50.3442 14.4807 50.4842 13.972 50.4842 13.412C50.4842 12.88 50.3629 12.404 50.1202 11.984C49.8775 11.5547 49.5415 11.1907 49.1122 10.892C48.6922 10.584 48.1882 10.3507 47.6002 10.192C47.0122 10.024 46.3682 9.94 45.6682 9.94C44.9775 9.94 44.3382 10.024 43.7502 10.192C43.1622 10.3507 42.6535 10.584 42.2242 10.892C41.8042 11.1907 41.4729 11.5547 41.2302 11.984C40.9875 12.404 40.8662 12.88 40.8662 13.412C40.8569 13.972 40.9875 14.4807 41.2582 14.938C41.5289 15.386 41.9162 15.7593 42.4202 16.058V19.208H39.8442V20.706H51.5202ZM45.6682 11.396C46.1162 11.396 46.5222 11.4427 46.8862 11.536C47.2595 11.62 47.5769 11.7507 47.8382 11.928C48.0995 12.096 48.3002 12.306 48.4402 12.558C48.5895 12.8007 48.6642 13.0853 48.6642 13.412C48.6642 13.7293 48.5895 14.014 48.4402 14.266C48.3002 14.518 48.0995 14.7327 47.8382 14.91C47.5769 15.078 47.2595 15.2087 46.8862 15.302C46.5222 15.386 46.1162 15.428 45.6682 15.428C44.7722 15.428 44.0489 15.2553 43.4982 14.91C42.9569 14.5553 42.6862 14.056 42.6862 13.412C42.6862 12.768 42.9569 12.2733 43.4982 11.928C44.0489 11.5733 44.7722 11.396 45.6682 11.396ZM47.0962 19.208H44.2542V16.744C44.7022 16.828 45.1735 16.87 45.6682 16.87C46.1722 16.87 46.6482 16.828 47.0962 16.744V19.208ZM59.6251 16.688L60.4651 15.274C59.9518 15.134 59.5038 14.9567 59.1211 14.742C58.7478 14.518 58.4398 14.266 58.1971 13.986C57.9544 13.706 57.7724 13.4073 57.6511 13.09C57.5298 12.7633 57.4644 12.432 57.4551 12.096H60.0031V10.64H57.4551V9.268H55.6071V10.64H53.0871V12.096H55.6071C55.5978 12.46 55.5324 12.8193 55.4111 13.174C55.2991 13.5193 55.1218 13.846 54.8791 14.154C54.6364 14.462 54.3284 14.742 53.9551 14.994C53.5911 15.2367 53.1524 15.4327 52.6391 15.582L53.5071 17.01C54.2631 16.7953 54.8931 16.4687 55.3971 16.03C55.9011 15.5913 56.2978 15.078 56.5871 14.49C56.8858 15.0033 57.2824 15.4513 57.7771 15.834C58.2811 16.2167 58.8971 16.5013 59.6251 16.688ZM61.6551 9.31V12.754H59.6531V14.238H61.6551V17.094H63.5031V9.31H61.6551ZM59.1491 17.318C58.4678 17.318 57.8518 17.374 57.3011 17.486C56.7504 17.5887 56.2838 17.7473 55.9011 17.962C55.5278 18.1673 55.2384 18.424 55.0331 18.732C54.8278 19.0307 54.7251 19.376 54.7251 19.768C54.7251 20.1507 54.8278 20.496 55.0331 20.804C55.2384 21.1027 55.5278 21.3547 55.9011 21.56C56.2838 21.7747 56.7504 21.9333 57.3011 22.036C57.8518 22.148 58.4678 22.204 59.1491 22.204C59.8304 22.204 60.4418 22.148 60.9831 22.036C61.5338 21.9333 61.9958 21.7747 62.3691 21.56C62.7518 21.3547 63.0458 21.1027 63.2511 20.804C63.4564 20.496 63.5591 20.1507 63.5591 19.768C63.5591 19.376 63.4564 19.0307 63.2511 18.732C63.0458 18.424 62.7518 18.1673 62.3691 17.962C61.9958 17.7473 61.5338 17.5887 60.9831 17.486C60.4418 17.374 59.8304 17.318 59.1491 17.318ZM59.1491 20.79C57.4318 20.79 56.5731 20.4493 56.5731 19.768C56.5731 19.0773 57.4318 18.732 59.1491 18.732C60.8571 18.732 61.7111 19.0773 61.7111 19.768C61.7111 20.1227 61.4964 20.384 61.0671 20.552C60.6378 20.7107 59.9984 20.79 59.1491 20.79Z" fill="white"/>
</svg>
