<svg width="78" height="33" viewBox="0 0 78 33" fill="none" xmlns="http://www.w3.org/2000/svg">
<rect width="78" height="33" rx="16.5" fill="#00B860"/>
<path d="M25.1464 22.19V9.296H23.3964V22.19H25.1464ZM22.5564 9.52H20.8344V12.152H19.3504C19.1077 11.5267 18.7857 11.0507 18.3844 10.724C17.9924 10.388 17.5304 10.22 16.9984 10.22C16.569 10.22 16.1817 10.3273 15.8364 10.542C15.491 10.7567 15.197 11.0647 14.9544 11.466C14.7117 11.8673 14.525 12.3573 14.3944 12.936C14.2637 13.5147 14.1984 14.168 14.1984 14.896C14.1984 15.624 14.2637 16.282 14.3944 16.87C14.525 17.4487 14.7117 17.9387 14.9544 18.34C15.197 18.7413 15.491 19.0493 15.8364 19.264C16.1817 19.4787 16.569 19.586 16.9984 19.586C17.5304 19.586 17.997 19.418 18.3984 19.082C18.7997 18.7367 19.1217 18.2513 19.3644 17.626H20.8344V21.616H22.5564V9.52ZM16.9984 17.85C16.6344 17.85 16.3497 17.6073 16.1444 17.122C15.9484 16.6273 15.8504 15.8853 15.8504 14.896C15.8504 13.9067 15.9484 13.1693 16.1444 12.684C16.3497 12.1987 16.6344 11.956 16.9984 11.956C17.353 11.956 17.6284 12.1987 17.8244 12.684C18.0297 13.1693 18.1324 13.9067 18.1324 14.896C18.1324 15.8853 18.0297 16.6273 17.8244 17.122C17.6284 17.6073 17.353 17.85 16.9984 17.85ZM20.8344 13.636V16.128H19.7144C19.733 15.9413 19.747 15.7453 19.7564 15.54C19.775 15.3253 19.7844 15.1107 19.7844 14.896C19.7844 14.448 19.7564 14.028 19.7004 13.636H20.8344ZM37.1153 13.776V12.488H38.7673V10.99H37.1153V9.31H35.2673V16.912H37.1153V15.288H38.7673V13.776H37.1153ZM34.0493 13.174C34.0493 12.7167 33.9606 12.2967 33.7833 11.914C33.6059 11.522 33.3586 11.186 33.0413 10.906C32.7333 10.626 32.3646 10.4067 31.9353 10.248C31.5153 10.0893 31.0579 10.01 30.5633 10.01C30.0686 10.01 29.6066 10.0893 29.1773 10.248C28.7479 10.4067 28.3746 10.626 28.0573 10.906C27.7493 11.186 27.5066 11.522 27.3293 11.914C27.1519 12.2967 27.0633 12.7167 27.0633 13.174C27.0633 13.6313 27.1519 14.056 27.3293 14.448C27.5066 14.8307 27.7493 15.162 28.0573 15.442C28.3746 15.722 28.7479 15.9413 29.1773 16.1C29.6066 16.2493 30.0686 16.324 30.5633 16.324C31.0579 16.324 31.5153 16.2493 31.9353 16.1C32.3646 15.9413 32.7333 15.722 33.0413 15.442C33.3586 15.162 33.6059 14.8307 33.7833 14.448C33.9606 14.056 34.0493 13.6313 34.0493 13.174ZM28.8693 13.174C28.8693 12.67 29.0233 12.278 29.3313 11.998C29.6486 11.718 30.0593 11.578 30.5633 11.578C31.0486 11.578 31.4499 11.718 31.7673 11.998C32.0939 12.278 32.2573 12.67 32.2573 13.174C32.2573 13.678 32.0939 14.07 31.7673 14.35C31.4499 14.63 31.0486 14.77 30.5633 14.77C30.0593 14.77 29.6486 14.63 29.3313 14.35C29.0233 14.07 28.8693 13.678 28.8693 13.174ZM37.1153 17.43H28.5193V18.914H35.2673V22.218H37.1153V17.43ZM40.0122 11.578H47.3202V10.262H44.6042V9.198H42.7562V10.262H40.0122V11.578ZM50.0642 14.518H51.6882V13.006H50.0642V9.31H48.2162V18.102H50.0642V14.518ZM47.7962 17.332L47.6562 16.086C47.1522 16.142 46.6482 16.1933 46.1442 16.24C45.6495 16.2773 45.1362 16.3053 44.6042 16.324V15.666C45.3042 15.5633 45.8455 15.3533 46.2282 15.036C46.6202 14.7187 46.8162 14.308 46.8162 13.804C46.8162 13.216 46.5315 12.754 45.9622 12.418C45.3929 12.0727 44.6322 11.9 43.6802 11.9C43.2042 11.9 42.7702 11.9467 42.3782 12.04C41.9955 12.124 41.6642 12.25 41.3842 12.418C41.1135 12.5767 40.9035 12.7727 40.7542 13.006C40.6049 13.2393 40.5302 13.5053 40.5302 13.804C40.5302 14.308 40.7262 14.7187 41.1182 15.036C41.5102 15.3533 42.0562 15.5633 42.7562 15.666V16.394C42.1962 16.4127 41.6642 16.422 41.1602 16.422H39.6902L39.8862 17.836C40.4462 17.836 41.0482 17.836 41.6922 17.836C42.3362 17.8267 42.9989 17.808 43.6802 17.78C44.3615 17.7427 45.0475 17.6913 45.7382 17.626C46.4382 17.5513 47.1242 17.4533 47.7962 17.332ZM42.2802 13.804C42.2802 13.5613 42.4015 13.384 42.6442 13.272C42.8869 13.1507 43.2322 13.09 43.6802 13.09C44.1282 13.09 44.4689 13.1507 44.7022 13.272C44.9449 13.384 45.0662 13.5613 45.0662 13.804C45.0662 14.0467 44.9449 14.2287 44.7022 14.35C44.4689 14.4713 44.1282 14.532 43.6802 14.532C43.2322 14.532 42.8869 14.4713 42.6442 14.35C42.4015 14.2287 42.2802 14.0467 42.2802 13.804ZM50.0642 18.606H41.3282V20.034H48.2162V22.218H50.0642V18.606ZM61.6551 9.31V12.418H59.7231V13.916H61.6551V16.982H63.5031V9.31H61.6551ZM59.5971 16.632L60.4931 15.19C60.0078 15.0313 59.5831 14.8213 59.2191 14.56C58.8551 14.2987 58.5518 14.0093 58.3091 13.692C58.0758 13.3653 57.8984 13.02 57.7771 12.656C57.6558 12.292 57.5904 11.928 57.5811 11.564H60.0871V10.08H53.1571V11.564H55.6911C55.6724 11.9653 55.5978 12.3667 55.4671 12.768C55.3458 13.16 55.1591 13.5333 54.9071 13.888C54.6644 14.2333 54.3564 14.5507 53.9831 14.84C53.6098 15.12 53.1664 15.3487 52.6531 15.526L53.5911 16.982C54.3471 16.73 54.9771 16.3567 55.4811 15.862C55.9944 15.358 56.3911 14.7793 56.6711 14.126C56.9511 14.6953 57.3338 15.1993 57.8191 15.638C58.3044 16.0673 58.8971 16.3987 59.5971 16.632ZM59.1491 17.262C58.4678 17.262 57.8518 17.318 57.3011 17.43C56.7504 17.542 56.2838 17.7053 55.9011 17.92C55.5278 18.1253 55.2384 18.382 55.0331 18.69C54.8278 18.998 54.7251 19.348 54.7251 19.74C54.7251 20.132 54.8278 20.482 55.0331 20.79C55.2384 21.098 55.5278 21.3547 55.9011 21.56C56.2838 21.7747 56.7504 21.938 57.3011 22.05C57.8518 22.162 58.4678 22.218 59.1491 22.218C59.8304 22.218 60.4418 22.162 60.9831 22.05C61.5338 21.938 61.9958 21.7747 62.3691 21.56C62.7518 21.3547 63.0458 21.098 63.2511 20.79C63.4564 20.482 63.5591 20.132 63.5591 19.74C63.5591 19.348 63.4564 18.998 63.2511 18.69C63.0458 18.382 62.7518 18.1253 62.3691 17.92C61.9958 17.7053 61.5338 17.542 60.9831 17.43C60.4418 17.318 59.8304 17.262 59.1491 17.262ZM59.1491 20.818C57.4318 20.818 56.5731 20.4587 56.5731 19.74C56.5731 19.0213 57.4318 18.662 59.1491 18.662C60.8571 18.662 61.7111 19.0213 61.7111 19.74C61.7111 20.4587 60.8571 20.818 59.1491 20.818Z" fill="white"/>
</svg>
