<svg width="78" height="33" viewBox="0 0 78 33" fill="none" xmlns="http://www.w3.org/2000/svg">
<rect width="78" height="33" rx="16.5" fill="#3083FF"/>
<path d="M24.9084 22.232V9.296H23.0604V11.942H20.3164C20.027 11.382 19.649 10.9527 19.1824 10.654C18.725 10.3553 18.2024 10.206 17.6144 10.206C17.1384 10.206 16.695 10.3133 16.2844 10.528C15.8737 10.7427 15.519 11.0507 15.2204 11.452C14.931 11.844 14.7024 12.3247 14.5344 12.894C14.3664 13.454 14.2824 14.0887 14.2824 14.798C14.2824 15.5073 14.3664 16.1467 14.5344 16.716C14.7024 17.2853 14.931 17.7707 15.2204 18.172C15.519 18.5733 15.8737 18.8813 16.2844 19.096C16.695 19.3107 17.1384 19.418 17.6144 19.418C18.2397 19.4273 18.7904 19.264 19.2664 18.928C19.7517 18.5827 20.139 18.088 20.4284 17.444H23.0604V22.232H24.9084ZM17.6144 17.738C17.1384 17.738 16.7557 17.4907 16.4664 16.996C16.177 16.492 16.0324 15.7593 16.0324 14.798C16.0324 13.8367 16.177 13.1087 16.4664 12.614C16.7557 12.1193 17.1384 11.872 17.6144 11.872C18.0904 11.872 18.473 12.1193 18.7624 12.614C19.061 13.1087 19.2104 13.8367 19.2104 14.798C19.2104 15.7593 19.061 16.492 18.7624 16.996C18.473 17.4907 18.0904 17.738 17.6144 17.738ZM23.0604 13.426V15.946H20.8624C20.9184 15.5913 20.9464 15.2087 20.9464 14.798C20.9464 14.3033 20.9044 13.846 20.8204 13.426H23.0604ZM33.5313 16.968H35.2533V13.986H36.2053V17.374H37.9553V9.31H36.2053V12.488H35.2533V9.548H33.5313V16.968ZM26.8953 12.054H33.1813V10.626H30.9413V9.45H29.1213V10.626H26.8953V12.054ZM32.8313 14.714C32.8313 14.378 32.7613 14.0747 32.6213 13.804C32.4906 13.524 32.2993 13.286 32.0473 13.09C31.8046 12.894 31.5153 12.7447 31.1793 12.642C30.8433 12.53 30.4699 12.474 30.0593 12.474C29.6486 12.474 29.2706 12.53 28.9253 12.642C28.5893 12.7447 28.2953 12.894 28.0433 13.09C27.8006 13.286 27.6093 13.524 27.4693 13.804C27.3386 14.0747 27.2733 14.378 27.2733 14.714C27.2733 15.05 27.3386 15.358 27.4693 15.638C27.6093 15.9087 27.8006 16.142 28.0433 16.338C28.2953 16.534 28.5893 16.688 28.9253 16.8C29.2706 16.912 29.6486 16.968 30.0593 16.968C30.4699 16.968 30.8433 16.912 31.1793 16.8C31.5153 16.688 31.8046 16.534 32.0473 16.338C32.2993 16.142 32.4906 15.9087 32.6213 15.638C32.7613 15.358 32.8313 15.05 32.8313 14.714ZM28.9113 14.714C28.9113 14.4153 29.0139 14.1867 29.2193 14.028C29.4339 13.8693 29.7139 13.79 30.0593 13.79C30.4046 13.79 30.6799 13.8693 30.8853 14.028C31.0906 14.1867 31.1933 14.4153 31.1933 14.714C31.1933 15.0127 31.0906 15.246 30.8853 15.414C30.6799 15.5727 30.4046 15.652 30.0593 15.652C29.7139 15.652 29.4339 15.5727 29.2193 15.414C29.0139 15.246 28.9113 15.0127 28.9113 14.714ZM33.5873 17.514C32.1406 17.514 31.0393 17.7193 30.2833 18.13C29.5273 18.5313 29.1493 19.11 29.1493 19.866C29.1493 20.622 29.5273 21.2007 30.2833 21.602C31.0393 22.0033 32.1406 22.204 33.5873 22.204C35.0339 22.204 36.1353 22.0033 36.8913 21.602C37.6473 21.2007 38.0253 20.622 38.0253 19.866C38.0253 19.11 37.6473 18.5313 36.8913 18.13C36.1353 17.7193 35.0339 17.514 33.5873 17.514ZM33.5873 20.832C32.7099 20.832 32.0566 20.7573 31.6273 20.608C31.2073 20.4493 30.9973 20.202 30.9973 19.866C30.9973 19.53 31.2073 19.2873 31.6273 19.138C32.0566 18.9793 32.7099 18.9 33.5873 18.9C34.4646 18.9 35.1133 18.9793 35.5333 19.138C35.9626 19.2873 36.1773 19.53 36.1773 19.866C36.1773 20.202 35.9626 20.4493 35.5333 20.608C35.1133 20.7573 34.4646 20.832 33.5873 20.832ZM51.6882 14.882V13.356H50.0642V9.31H48.2162V19.152H50.0642V14.882H51.6882ZM47.6562 16.94L47.5442 15.638C47.0682 15.7127 46.5875 15.7687 46.1022 15.806C45.6169 15.8433 45.1222 15.876 44.6182 15.904V14.98C45.3182 14.8213 45.8735 14.5227 46.2842 14.084C46.6949 13.636 46.9002 13.09 46.9002 12.446C46.9002 12.0633 46.8209 11.7133 46.6622 11.396C46.5035 11.0693 46.2795 10.794 45.9902 10.57C45.7102 10.3367 45.3695 10.1547 44.9682 10.024C44.5762 9.89333 44.1469 9.828 43.6802 9.828C43.2135 9.828 42.7842 9.89333 42.3922 10.024C42.0002 10.1547 41.6595 10.3367 41.3702 10.57C41.0902 10.794 40.8709 11.0693 40.7122 11.396C40.5535 11.7133 40.4742 12.0633 40.4742 12.446C40.4742 13.09 40.6795 13.636 41.0902 14.084C41.5102 14.532 42.0702 14.8307 42.7702 14.98V15.974C42.2382 15.9927 41.7249 16.002 41.2302 16.002H39.8022L40.0262 17.472C40.5582 17.472 41.1322 17.4673 41.7482 17.458C42.3642 17.4487 42.9989 17.4253 43.6522 17.388C44.3149 17.3507 44.9822 17.2993 45.6542 17.234C46.3355 17.1593 47.0029 17.0613 47.6562 16.94ZM42.1962 12.446C42.1962 12.054 42.3315 11.7507 42.6022 11.536C42.8729 11.3213 43.2322 11.214 43.6802 11.214C44.1282 11.214 44.4922 11.3213 44.7722 11.536C45.0522 11.7507 45.1922 12.054 45.1922 12.446C45.1922 12.838 45.0522 13.1413 44.7722 13.356C44.4922 13.5707 44.1282 13.678 43.6802 13.678C43.2322 13.678 42.8729 13.5707 42.6022 13.356C42.3315 13.1413 42.1962 12.838 42.1962 12.446ZM50.4982 20.51H43.3302V18.312H41.4822V21.98H50.4982V20.51ZM64.3991 20.79V19.278H61.5711V17.318H63.3771V15.834H55.9011V14.42H63.0831V10.136H54.0531V11.606H61.2631V12.978H54.0671V17.318H55.6771V19.278H52.7091V20.79H64.3991ZM59.7511 19.278H57.4971V17.318H59.7511V19.278Z" fill="white"/>
</svg>
