<svg width="65" height="33" viewBox="0 0 65 33" fill="none" xmlns="http://www.w3.org/2000/svg">
<rect width="65" height="33" rx="16.5" fill="#3083FF"/>
<path d="M24.7873 22.232V9.296H22.9393V11.942H20.1953C19.9059 11.382 19.5279 10.9527 19.0613 10.654C18.6039 10.3553 18.0813 10.206 17.4933 10.206C17.0173 10.206 16.5739 10.3133 16.1633 10.528C15.7526 10.7427 15.3979 11.0507 15.0993 11.452C14.8099 11.844 14.5813 12.3247 14.4133 12.894C14.2453 13.454 14.1613 14.0887 14.1613 14.798C14.1613 15.5073 14.2453 16.1467 14.4133 16.716C14.5813 17.2853 14.8099 17.7707 15.0993 18.172C15.3979 18.5733 15.7526 18.8813 16.1633 19.096C16.5739 19.3107 17.0173 19.418 17.4933 19.418C18.1186 19.4273 18.6693 19.264 19.1453 18.928C19.6306 18.5827 20.0179 18.088 20.3073 17.444H22.9393V22.232H24.7873ZM17.4933 17.738C17.0173 17.738 16.6346 17.4907 16.3453 16.996C16.0559 16.492 15.9113 15.7593 15.9113 14.798C15.9113 13.8367 16.0559 13.1087 16.3453 12.614C16.6346 12.1193 17.0173 11.872 17.4933 11.872C17.9693 11.872 18.3519 12.1193 18.6413 12.614C18.9399 13.1087 19.0893 13.8367 19.0893 14.798C19.0893 15.7593 18.9399 16.492 18.6413 16.996C18.3519 17.4907 17.9693 17.738 17.4933 17.738ZM22.9393 13.426V15.946H20.7413C20.7973 15.5913 20.8253 15.2087 20.8253 14.798C20.8253 14.3033 20.7833 13.846 20.6993 13.426H22.9393ZM33.4102 16.968H35.1322V13.986H36.0842V17.374H37.8342V9.31H36.0842V12.488H35.1322V9.548H33.4102V16.968ZM26.7742 12.054H33.0602V10.626H30.8202V9.45H29.0002V10.626H26.7742V12.054ZM32.7102 14.714C32.7102 14.378 32.6402 14.0747 32.5002 13.804C32.3695 13.524 32.1782 13.286 31.9262 13.09C31.6835 12.894 31.3942 12.7447 31.0582 12.642C30.7222 12.53 30.3489 12.474 29.9382 12.474C29.5275 12.474 29.1495 12.53 28.8042 12.642C28.4682 12.7447 28.1742 12.894 27.9222 13.09C27.6795 13.286 27.4882 13.524 27.3482 13.804C27.2175 14.0747 27.1522 14.378 27.1522 14.714C27.1522 15.05 27.2175 15.358 27.3482 15.638C27.4882 15.9087 27.6795 16.142 27.9222 16.338C28.1742 16.534 28.4682 16.688 28.8042 16.8C29.1495 16.912 29.5275 16.968 29.9382 16.968C30.3489 16.968 30.7222 16.912 31.0582 16.8C31.3942 16.688 31.6835 16.534 31.9262 16.338C32.1782 16.142 32.3695 15.9087 32.5002 15.638C32.6402 15.358 32.7102 15.05 32.7102 14.714ZM28.7902 14.714C28.7902 14.4153 28.8929 14.1867 29.0982 14.028C29.3129 13.8693 29.5929 13.79 29.9382 13.79C30.2835 13.79 30.5589 13.8693 30.7642 14.028C30.9695 14.1867 31.0722 14.4153 31.0722 14.714C31.0722 15.0127 30.9695 15.246 30.7642 15.414C30.5589 15.5727 30.2835 15.652 29.9382 15.652C29.5929 15.652 29.3129 15.5727 29.0982 15.414C28.8929 15.246 28.7902 15.0127 28.7902 14.714ZM33.4662 17.514C32.0195 17.514 30.9182 17.7193 30.1622 18.13C29.4062 18.5313 29.0282 19.11 29.0282 19.866C29.0282 20.622 29.4062 21.2007 30.1622 21.602C30.9182 22.0033 32.0195 22.204 33.4662 22.204C34.9129 22.204 36.0142 22.0033 36.7702 21.602C37.5262 21.2007 37.9042 20.622 37.9042 19.866C37.9042 19.11 37.5262 18.5313 36.7702 18.13C36.0142 17.7193 34.9129 17.514 33.4662 17.514ZM33.4662 20.832C32.5889 20.832 31.9355 20.7573 31.5062 20.608C31.0862 20.4493 30.8762 20.202 30.8762 19.866C30.8762 19.53 31.0862 19.2873 31.5062 19.138C31.9355 18.9793 32.5889 18.9 33.4662 18.9C34.3435 18.9 34.9922 18.9793 35.4122 19.138C35.8415 19.2873 36.0562 19.53 36.0562 19.866C36.0562 20.202 35.8415 20.4493 35.4122 20.608C34.9922 20.7573 34.3435 20.832 33.4662 20.832ZM40.2271 13.23L40.8431 14.658C42.0844 14.5553 43.0924 14.294 43.8671 13.874C44.6418 13.454 45.2018 12.936 45.5471 12.32C45.8924 12.9267 46.4571 13.4447 47.2411 13.874C48.0251 14.294 49.0238 14.5553 50.2371 14.658L50.8811 13.23C50.2838 13.174 49.7518 13.0853 49.2851 12.964C48.8278 12.8333 48.4358 12.684 48.1091 12.516C47.7824 12.348 47.5164 12.1613 47.3111 11.956C47.1151 11.7507 46.9751 11.536 46.8911 11.312H50.3211V9.842H40.7871V11.312H44.2031C44.1191 11.536 43.9744 11.7507 43.7691 11.956C43.5731 12.1613 43.3118 12.348 42.9851 12.516C42.6584 12.684 42.2664 12.8333 41.8091 12.964C41.3518 13.0853 40.8244 13.174 40.2271 13.23ZM46.4711 17.584V16.632H51.3711V15.162H39.7231V16.632H44.6231V17.57C43.4938 17.6633 42.6164 17.906 41.9911 18.298C41.3658 18.6807 41.0531 19.208 41.0531 19.88C41.0531 20.2533 41.1558 20.5847 41.3611 20.874C41.5664 21.1633 41.8604 21.406 42.2431 21.602C42.6258 21.8073 43.0924 21.9613 43.6431 22.064C44.1938 22.1667 44.8191 22.218 45.5191 22.218C46.2191 22.218 46.8444 22.1667 47.3951 22.064C47.9458 21.9613 48.4124 21.8073 48.7951 21.602C49.1871 21.406 49.4858 21.1633 49.6911 20.874C49.8964 20.5847 49.9991 20.2533 49.9991 19.88C49.9991 19.208 49.6911 18.6807 49.0751 18.298C48.4684 17.9153 47.6004 17.6773 46.4711 17.584ZM48.1231 19.88C48.1231 20.2067 47.9084 20.4447 47.4791 20.594C47.0498 20.734 46.3964 20.804 45.5191 20.804C44.6418 20.804 43.9884 20.734 43.5591 20.594C43.1298 20.4447 42.9151 20.2067 42.9151 19.88C42.9151 19.5533 43.1298 19.3153 43.5591 19.166C43.9884 19.0167 44.6418 18.942 45.5191 18.942C46.3964 18.942 47.0498 19.0167 47.4791 19.166C47.9084 19.3153 48.1231 19.5533 48.1231 19.88Z" fill="white"/>
</svg>
