<svg width="78" height="33" viewBox="0 0 78 33" fill="none" xmlns="http://www.w3.org/2000/svg">
<rect width="78" height="33" rx="16.5" fill="#8A8A8A"/>
<path d="M24.8804 22.204V9.31H23.0324V22.204H24.8804ZM14.5484 14.462L15.2904 15.89C16.0464 15.7313 16.6764 15.484 17.1804 15.148C17.6937 14.812 18.095 14.406 18.3844 13.93C18.6737 14.35 19.061 14.714 19.5464 15.022C20.0317 15.33 20.6384 15.554 21.3664 15.694L22.0804 14.266C21.1377 14.098 20.4377 13.8087 19.9804 13.398C19.5324 12.9873 19.2944 12.5253 19.2664 12.012H21.7864V10.584H19.2664V9.324H17.4184V10.584H14.8984V12.012H17.4184C17.3904 12.5627 17.1477 13.062 16.6904 13.51C16.233 13.958 15.519 14.2753 14.5484 14.462ZM22.4164 17.388L22.3044 16.058C21.6324 16.1513 20.937 16.226 20.2184 16.282C19.4997 16.3287 18.7857 16.366 18.0764 16.394C17.3764 16.4127 16.6904 16.4267 16.0184 16.436C15.3464 16.436 14.7164 16.436 14.1284 16.436L14.3524 17.934C14.8284 17.934 15.3137 17.934 15.8084 17.934C16.3124 17.9247 16.8444 17.9107 17.4044 17.892V21.812H19.2524V17.78C19.7844 17.7333 20.3117 17.682 20.8344 17.626C21.357 17.57 21.8844 17.4907 22.4164 17.388ZM37.4933 16.716L38.2493 15.19C37.5119 15.0687 36.8633 14.868 36.3033 14.588C35.7433 14.2987 35.2719 13.9627 34.8893 13.58C34.5066 13.1973 34.2173 12.7773 34.0213 12.32C33.8253 11.8627 33.7273 11.4053 33.7273 10.948V10.024H31.7533V10.948C31.7533 11.396 31.6553 11.8487 31.4593 12.306C31.2633 12.754 30.9739 13.174 30.5913 13.566C30.2086 13.9487 29.7373 14.2847 29.1773 14.574C28.6173 14.8633 27.9733 15.0687 27.2453 15.19L28.0013 16.716C29.1306 16.5107 30.0966 16.1233 30.8993 15.554C31.7019 14.9847 32.3133 14.3033 32.7333 13.51C33.1533 14.3313 33.7506 15.022 34.5253 15.582C35.3093 16.1327 36.2986 16.5107 37.4933 16.716ZM38.6413 20.678V19.194H33.6713V16.31H31.8233V19.194H26.9653V20.678H38.6413ZM51.6882 14.882V13.356H50.0642V9.31H48.2162V19.152H50.0642V14.882H51.6882ZM47.6562 16.94L47.5442 15.638C47.0682 15.7127 46.5875 15.7687 46.1022 15.806C45.6169 15.8433 45.1222 15.876 44.6182 15.904V14.98C45.3182 14.8213 45.8735 14.5227 46.2842 14.084C46.6949 13.636 46.9002 13.09 46.9002 12.446C46.9002 12.0633 46.8209 11.7133 46.6622 11.396C46.5035 11.0693 46.2795 10.794 45.9902 10.57C45.7102 10.3367 45.3695 10.1547 44.9682 10.024C44.5762 9.89333 44.1469 9.828 43.6802 9.828C43.2135 9.828 42.7842 9.89333 42.3922 10.024C42.0002 10.1547 41.6595 10.3367 41.3702 10.57C41.0902 10.794 40.8709 11.0693 40.7122 11.396C40.5535 11.7133 40.4742 12.0633 40.4742 12.446C40.4742 13.09 40.6795 13.636 41.0902 14.084C41.5102 14.532 42.0702 14.8307 42.7702 14.98V15.974C42.2382 15.9927 41.7249 16.002 41.2302 16.002H39.8022L40.0262 17.472C40.5582 17.472 41.1322 17.4673 41.7482 17.458C42.3642 17.4487 42.9989 17.4253 43.6522 17.388C44.3149 17.3507 44.9822 17.2993 45.6542 17.234C46.3355 17.1593 47.0029 17.0613 47.6562 16.94ZM42.1962 12.446C42.1962 12.054 42.3315 11.7507 42.6022 11.536C42.8729 11.3213 43.2322 11.214 43.6802 11.214C44.1282 11.214 44.4922 11.3213 44.7722 11.536C45.0522 11.7507 45.1922 12.054 45.1922 12.446C45.1922 12.838 45.0522 13.1413 44.7722 13.356C44.4922 13.5707 44.1282 13.678 43.6802 13.678C43.2322 13.678 42.8729 13.5707 42.6022 13.356C42.3315 13.1413 42.1962 12.838 42.1962 12.446ZM50.4982 20.51H43.3302V18.312H41.4822V21.98H50.4982V20.51ZM64.3991 20.79V19.278H61.5711V17.318H63.3771V15.834H55.9011V14.42H63.0831V10.136H54.0531V11.606H61.2631V12.978H54.0671V17.318H55.6771V19.278H52.7091V20.79H64.3991ZM59.7511 19.278H57.4971V17.318H59.7511V19.278Z" fill="white"/>
</svg>
