<svg width="78" height="33" viewBox="0 0 78 33" fill="none" xmlns="http://www.w3.org/2000/svg">
<rect width="78" height="33" rx="16.5" fill="#FF2063"/>
<path d="M24.8804 22.204V9.31H23.0324V22.204H24.8804ZM14.5484 14.462L15.2904 15.89C16.0464 15.7313 16.6764 15.484 17.1804 15.148C17.6937 14.812 18.095 14.406 18.3844 13.93C18.6737 14.35 19.061 14.714 19.5464 15.022C20.0317 15.33 20.6384 15.554 21.3664 15.694L22.0804 14.266C21.1377 14.098 20.4377 13.8087 19.9804 13.398C19.5324 12.9873 19.2944 12.5253 19.2664 12.012H21.7864V10.584H19.2664V9.324H17.4184V10.584H14.8984V12.012H17.4184C17.3904 12.5627 17.1477 13.062 16.6904 13.51C16.233 13.958 15.519 14.2753 14.5484 14.462ZM22.4164 17.388L22.3044 16.058C21.6324 16.1513 20.937 16.226 20.2184 16.282C19.4997 16.3287 18.7857 16.366 18.0764 16.394C17.3764 16.4127 16.6904 16.4267 16.0184 16.436C15.3464 16.436 14.7164 16.436 14.1284 16.436L14.3524 17.934C14.8284 17.934 15.3137 17.934 15.8084 17.934C16.3124 17.9247 16.8444 17.9107 17.4044 17.892V21.812H19.2524V17.78C19.7844 17.7333 20.3117 17.682 20.8344 17.626C21.357 17.57 21.8844 17.4907 22.4164 17.388ZM37.4933 16.716L38.2493 15.19C37.5119 15.0687 36.8633 14.868 36.3033 14.588C35.7433 14.2987 35.2719 13.9627 34.8893 13.58C34.5066 13.1973 34.2173 12.7773 34.0213 12.32C33.8253 11.8627 33.7273 11.4053 33.7273 10.948V10.024H31.7533V10.948C31.7533 11.396 31.6553 11.8487 31.4593 12.306C31.2633 12.754 30.9739 13.174 30.5913 13.566C30.2086 13.9487 29.7373 14.2847 29.1773 14.574C28.6173 14.8633 27.9733 15.0687 27.2453 15.19L28.0013 16.716C29.1306 16.5107 30.0966 16.1233 30.8993 15.554C31.7019 14.9847 32.3133 14.3033 32.7333 13.51C33.1533 14.3313 33.7506 15.022 34.5253 15.582C35.3093 16.1327 36.2986 16.5107 37.4933 16.716ZM38.6413 20.678V19.194H33.6713V16.31H31.8233V19.194H26.9653V20.678H38.6413ZM51.5202 20.706V19.208H48.9302V16.058C49.4155 15.7593 49.7935 15.386 50.0642 14.938C50.3442 14.4807 50.4842 13.972 50.4842 13.412C50.4842 12.88 50.3629 12.404 50.1202 11.984C49.8775 11.5547 49.5415 11.1907 49.1122 10.892C48.6922 10.584 48.1882 10.3507 47.6002 10.192C47.0122 10.024 46.3682 9.94 45.6682 9.94C44.9775 9.94 44.3382 10.024 43.7502 10.192C43.1622 10.3507 42.6535 10.584 42.2242 10.892C41.8042 11.1907 41.4729 11.5547 41.2302 11.984C40.9875 12.404 40.8662 12.88 40.8662 13.412C40.8569 13.972 40.9875 14.4807 41.2582 14.938C41.5289 15.386 41.9162 15.7593 42.4202 16.058V19.208H39.8442V20.706H51.5202ZM45.6682 11.396C46.1162 11.396 46.5222 11.4427 46.8862 11.536C47.2595 11.62 47.5769 11.7507 47.8382 11.928C48.0995 12.096 48.3002 12.306 48.4402 12.558C48.5895 12.8007 48.6642 13.0853 48.6642 13.412C48.6642 13.7293 48.5895 14.014 48.4402 14.266C48.3002 14.518 48.0995 14.7327 47.8382 14.91C47.5769 15.078 47.2595 15.2087 46.8862 15.302C46.5222 15.386 46.1162 15.428 45.6682 15.428C44.7722 15.428 44.0489 15.2553 43.4982 14.91C42.9569 14.5553 42.6862 14.056 42.6862 13.412C42.6862 12.768 42.9569 12.2733 43.4982 11.928C44.0489 11.5733 44.7722 11.396 45.6682 11.396ZM47.0962 19.208H44.2542V16.744C44.7022 16.828 45.1735 16.87 45.6682 16.87C46.1722 16.87 46.6482 16.828 47.0962 16.744V19.208ZM59.6251 16.688L60.4651 15.274C59.9518 15.134 59.5038 14.9567 59.1211 14.742C58.7478 14.518 58.4398 14.266 58.1971 13.986C57.9544 13.706 57.7724 13.4073 57.6511 13.09C57.5298 12.7633 57.4644 12.432 57.4551 12.096H60.0031V10.64H57.4551V9.268H55.6071V10.64H53.0871V12.096H55.6071C55.5978 12.46 55.5324 12.8193 55.4111 13.174C55.2991 13.5193 55.1218 13.846 54.8791 14.154C54.6364 14.462 54.3284 14.742 53.9551 14.994C53.5911 15.2367 53.1524 15.4327 52.6391 15.582L53.5071 17.01C54.2631 16.7953 54.8931 16.4687 55.3971 16.03C55.9011 15.5913 56.2978 15.078 56.5871 14.49C56.8858 15.0033 57.2824 15.4513 57.7771 15.834C58.2811 16.2167 58.8971 16.5013 59.6251 16.688ZM61.6551 9.31V12.754H59.6531V14.238H61.6551V17.094H63.5031V9.31H61.6551ZM59.1491 17.318C58.4678 17.318 57.8518 17.374 57.3011 17.486C56.7504 17.5887 56.2838 17.7473 55.9011 17.962C55.5278 18.1673 55.2384 18.424 55.0331 18.732C54.8278 19.0307 54.7251 19.376 54.7251 19.768C54.7251 20.1507 54.8278 20.496 55.0331 20.804C55.2384 21.1027 55.5278 21.3547 55.9011 21.56C56.2838 21.7747 56.7504 21.9333 57.3011 22.036C57.8518 22.148 58.4678 22.204 59.1491 22.204C59.8304 22.204 60.4418 22.148 60.9831 22.036C61.5338 21.9333 61.9958 21.7747 62.3691 21.56C62.7518 21.3547 63.0458 21.1027 63.2511 20.804C63.4564 20.496 63.5591 20.1507 63.5591 19.768C63.5591 19.376 63.4564 19.0307 63.2511 18.732C63.0458 18.424 62.7518 18.1673 62.3691 17.962C61.9958 17.7473 61.5338 17.5887 60.9831 17.486C60.4418 17.374 59.8304 17.318 59.1491 17.318ZM59.1491 20.79C57.4318 20.79 56.5731 20.4493 56.5731 19.768C56.5731 19.0773 57.4318 18.732 59.1491 18.732C60.8571 18.732 61.7111 19.0773 61.7111 19.768C61.7111 20.1227 61.4964 20.384 61.0671 20.552C60.6378 20.7107 59.9984 20.79 59.1491 20.79Z" fill="white"/>
</svg>
